<svg xmlns="http://www.w3.org/2000/svg"
    class="header__logo__link__svg"
    width="113" height="29">
    <path d="M22.003 28.004H29V0H18.647l-4.202 18.31L10.298 0H0v28.004h6V6.567l5.116 21.437h5.704L22.003 6.63v21.374zm55 0H84V0H73.647l-4.202 18.31L65.298 0H55v28.004h6V6.567l5.116 21.437h5.704L77.003 6.63v21.374zM38.49 17.656v.956c0 3.634 1.5 5.12 3.47 5.12 2.034 0 3.535-1.486 3.535-5.12v-.956c0-3.698-1.5-5.117-3.535-5.117-1.97 0-3.47 1.41-3.47 5.11zm-6.814.252c0-6.457 4.99-10.003 10.284-10.003 5.363 0 10.35 3.546 10.35 10.003v.42c0 6.597-4.987 10.072-10.35 10.072-5.294 0-10.284-3.475-10.284-10.072v-.42zM94.49 23l-1.586 5.004H86.35L95.427 0h8.71l8.567 28.004h-6.932L104.26 23h-9.77zm5.012-16.716l-3.41 11.72h6.66l-3.25-11.72z"
    stroke="none"></path>
</svg>
